<svg width="513" height="444" viewBox="0 0 513 444" fill="none" xmlns="http://www.w3.org/2000/svg">
<path fill-rule="evenodd" clip-rule="evenodd" d="M40.6528 232.191C50.2266 222.376 64.4185 208.149 82.6303 189.891C92.4469 180.05 103.431 169.038 115.49 156.915C178.243 93.8288 186.35 85.4995 196.183 81.9428C197.964 81.2988 199.801 80.8112 202.029 80.1834C209.858 77.9784 221.075 78.8434 228.637 82.2374C238.966 86.8724 246.779 97.0144 248.292 107.751C248.638 110.203 249.073 112.715 249.258 113.334C249.444 113.953 251.92 112.278 254.76 109.611C257.601 106.944 263.031 103.208 266.827 101.309C289.229 90.1014 312.219 96.5134 321.613 116.589C323.926 121.53 324.235 123.417 324.174 132.209C324.126 139.032 323.569 143.609 322.418 146.615C321.491 149.038 320.868 151.156 321.032 151.321C321.197 151.486 323.34 150.866 325.793 149.943C328.883 148.781 333.328 148.266 340.254 148.268C349.121 148.271 350.896 148.583 355.919 151.022C363.167 154.543 369.375 160.736 372.644 167.709C376.276 175.455 376.786 187.952 373.864 197.573C371.661 204.827 365.979 214.231 360.831 219.146C359.138 220.761 357.754 222.386 357.754 222.757C357.754 223.127 360.089 223.707 362.943 224.045C378.01 225.829 390.716 239.328 392.359 255.295C393.189 263.363 391.462 271.772 387.138 280.709C383.878 287.447 381.415 290.295 362.882 308.751C345.56 326.002 263.21 406.147 236.004 432.307L201.379 411L127.879 352.5L72.8792 292.5L40.6528 232.191ZM176.936 140.709C177.635 127.916 187.131 116.197 200.078 112.148C208.37 109.556 215.076 111.109 220.234 116.819C224.363 121.389 225.456 126.331 223.938 133.568C220.992 147.611 207.917 158.637 194.152 158.687C187.136 158.712 182.867 156.467 178.941 150.685C176.932 147.725 176.634 146.244 176.936 140.709ZM248.079 143.055C251.212 136.871 260.254 128.424 265.987 126.324C271.899 124.159 281.884 124.669 285.431 127.317C290.921 131.416 292.254 134.291 292.254 142.032C292.254 150.635 289.926 156.116 283.516 162.603C274.539 171.689 262.309 174.947 253.754 170.532C244.704 165.86 242.335 154.39 248.079 143.055ZM296.812 211.024C294.818 199.297 302.553 185.964 314.943 179.773C330.262 172.117 344.261 179.018 344.23 194.209C344.215 201.801 341.134 208.412 334.531 215.022C325.768 223.794 314.078 226.85 305.813 222.53C300.484 219.745 297.686 216.169 296.812 211.024ZM137.164 220.687C141.794 202.433 154.405 189.575 172.102 185.066C178.296 183.488 189.106 183.993 194.14 186.097C196.15 186.937 199.922 189.392 202.524 191.554C210.939 198.547 213.059 199.211 231.544 200.64C245.19 201.695 251.499 204.341 259.551 212.382C267.568 220.39 269.698 225.992 271.19 243.007C272.56 258.626 273.63 262.036 279.261 268.709C285.092 275.621 287.02 280.838 287 289.651C286.959 307.51 276.251 324.15 260.254 331.216C243.603 338.57 229.403 336.6 218.486 325.421C215.864 322.736 209.123 313.715 203.506 305.374C197.88 297.02 190.359 287.29 186.759 283.709C183.164 280.134 173.41 272.576 165.082 266.913C156.755 261.25 147.843 254.373 145.277 251.63C136.805 242.573 134.166 232.508 137.164 220.687ZM321.416 258.64C326.442 253.266 329.677 251.188 336.254 249.108C343.993 246.66 350.052 247.902 355.523 253.058C365.829 262.769 359.445 282.733 342.929 292.444C336.569 296.183 326.418 296.772 320.983 293.718C315.462 290.614 312.748 285.442 312.776 278.073C312.804 270.667 315.194 265.291 321.416 258.64Z" fill="#E9E9E9"/>
<path fill-rule="evenodd" clip-rule="evenodd" d="M111.254 1.26042C93.4508 4.59542 76.6658 11.1424 62.5958 20.2414C28.4918 42.2944 7.20683 76.8734 1.67483 119.209C0.0278307 131.808 1.06483 160.422 3.61683 172.836C22.2478 263.46 101.005 352.839 232.254 432.31L250.254 443.209H256.754C263.187 443.209 263.413 443.113 278.754 433.847C417.127 350.273 497.658 256.383 511.313 162.709C513.325 148.908 512.852 121.527 510.399 109.709C498.74 53.5514 459.951 13.6374 405.754 2.03042C393.72 -0.54758 363.752 -0.544578 351.778 2.03542C319.4 9.01142 291.947 23.8564 265.482 48.6974L256.709 56.9314L248.982 49.5604C223.428 25.1844 195.771 9.73442 164.843 2.55942C153.103 -0.16458 122.785 -0.89958 111.254 1.26042ZM228.637 82.2374C238.966 86.8724 246.779 97.0144 248.292 107.751C248.638 110.203 249.073 112.715 249.258 113.334C249.444 113.953 251.92 112.278 254.76 109.611C257.601 106.944 263.031 103.208 266.827 101.309C289.229 90.1014 312.219 96.5134 321.613 116.589C323.926 121.53 324.235 123.417 324.174 132.209C324.126 139.032 323.569 143.609 322.418 146.615C321.491 149.038 320.868 151.156 321.032 151.321C321.197 151.486 323.34 150.866 325.793 149.943C328.883 148.781 333.328 148.266 340.254 148.268C349.121 148.271 350.896 148.583 355.919 151.022C363.167 154.543 369.375 160.736 372.644 167.709C376.276 175.455 376.786 187.952 373.864 197.573C371.661 204.827 365.979 214.231 360.831 219.146C359.138 220.761 357.754 222.386 357.754 222.757C357.754 223.127 360.089 223.707 362.943 224.045C378.01 225.829 390.716 239.328 392.359 255.295C393.189 263.363 391.462 271.772 387.138 280.709C383.878 287.447 381.415 290.295 362.882 308.751C342.452 329.096 238.068 429.723 233.879 433.295C233.879 433.295 232.89 433.678 217.189 423C147.009 379.435 86.231 332.637 56.806 283.709C52.225 276.091 32.738 249.369 31.821 246C31.355 244.285 58.8528 213.853 115.49 156.915C189.606 82.4054 187.494 84.2784 202.029 80.1834C209.858 77.9784 221.075 78.8434 228.637 82.2374ZM200.078 112.148C187.131 116.197 177.635 127.916 176.936 140.709C176.634 146.244 176.932 147.725 178.941 150.685C182.867 156.467 187.136 158.712 194.152 158.687C207.917 158.637 220.992 147.611 223.938 133.568C225.456 126.331 224.363 121.389 220.234 116.819C215.076 111.109 208.37 109.556 200.078 112.148ZM265.987 126.324C260.254 128.424 251.212 136.871 248.079 143.055C242.335 154.39 244.704 165.86 253.754 170.532C262.309 174.947 274.539 171.689 283.516 162.603C289.926 156.116 292.254 150.635 292.254 142.032C292.254 134.291 290.921 131.416 285.431 127.317C281.884 124.669 271.899 124.159 265.987 126.324ZM314.943 179.773C302.553 185.964 294.818 199.297 296.812 211.024C297.686 216.169 300.484 219.745 305.813 222.53C314.078 226.85 325.768 223.794 334.531 215.022C341.134 208.412 344.215 201.801 344.23 194.209C344.261 179.018 330.262 172.117 314.943 179.773ZM172.102 185.066C154.405 189.575 141.794 202.433 137.164 220.687C134.166 232.508 136.805 242.573 145.277 251.63C147.843 254.373 156.755 261.25 165.082 266.913C173.41 272.576 183.164 280.134 186.759 283.709C190.359 287.29 197.88 297.02 203.506 305.374C209.123 313.715 215.864 322.736 218.486 325.421C229.403 336.6 243.603 338.57 260.254 331.216C276.251 324.15 286.959 307.51 287 289.651C287.02 280.838 285.092 275.621 279.261 268.709C273.63 262.036 272.56 258.626 271.19 243.007C269.698 225.992 267.568 220.39 259.551 212.382C251.499 204.341 245.19 201.695 231.544 200.64C213.059 199.211 210.939 198.547 202.524 191.554C199.922 189.392 196.15 186.937 194.14 186.097C189.106 183.993 178.296 183.488 172.102 185.066ZM336.254 249.108C329.677 251.188 326.442 253.266 321.416 258.64C315.194 265.291 312.804 270.667 312.776 278.073C312.748 285.442 315.462 290.614 320.983 293.718C326.418 296.772 336.569 296.183 342.929 292.444C359.445 282.733 365.829 262.769 355.523 253.058C350.052 247.902 343.993 246.66 336.254 249.108Z" fill="#02A894"/>
<path fill-rule="evenodd" clip-rule="evenodd" d="M223.279 29.213C204.769 16.2939 185.097 7.47902 163.886 2.55821C152.152 -0.164502 121.848 -0.899155 110.323 1.25982C92.5279 4.59325 75.7509 11.1372 61.6875 20.2319C27.5996 42.2744 6.32469 76.8371 0.795304 119.153C-0.850917 131.746 0.185592 160.347 2.73639 172.755C21.3586 263.336 100.078 352.673 231.265 432.106L249.257 443H253.476C226.049 426.719 190.654 401.83 156.17 370.963C118.112 337.987 87.369 303.389 67.9396 271.081C63.3607 263.467 47.3073 231.387 46.3907 228.02C46.3639 227.921 46.3785 227.786 46.4405 227.61C33.8238 197.266 27.6794 165.563 31.379 133.5C37.2059 83 75.3791 -5.99998 222.379 29C222.681 29.0718 222.981 29.1428 223.279 29.213Z" fill="#049280"/>
<path fill-rule="evenodd" clip-rule="evenodd" d="M200.078 112.148C187.131 116.197 177.635 127.916 176.936 140.709C176.634 146.244 176.932 147.725 178.941 150.685C182.867 156.467 187.136 158.712 194.152 158.687C207.917 158.637 220.992 147.611 223.938 133.568C225.456 126.331 224.363 121.389 220.234 116.819C215.076 111.109 208.37 109.556 200.078 112.148ZM265.987 126.324C260.254 128.424 251.212 136.871 248.079 143.055C242.335 154.39 244.704 165.86 253.754 170.532C262.309 174.947 274.539 171.689 283.516 162.603C289.926 156.116 292.254 150.635 292.254 142.032C292.254 134.291 290.921 131.416 285.431 127.317C281.884 124.669 271.899 124.159 265.987 126.324ZM314.943 179.773C302.553 185.964 294.818 199.297 296.812 211.024C297.686 216.169 300.484 219.745 305.813 222.53C314.078 226.85 325.768 223.794 334.531 215.022C341.134 208.412 344.215 201.801 344.23 194.209C344.261 179.018 330.262 172.117 314.943 179.773ZM172.102 185.066C154.405 189.575 141.794 202.433 137.164 220.687C134.166 232.508 136.805 242.573 145.277 251.63C147.843 254.373 156.755 261.25 165.082 266.913C173.41 272.576 183.164 280.134 186.759 283.709C190.359 287.29 197.88 297.02 203.506 305.374C209.123 313.715 215.864 322.736 218.486 325.421C229.403 336.6 243.603 338.57 260.254 331.216C276.251 324.15 286.959 307.51 287 289.651C287.02 280.838 285.092 275.621 279.261 268.709C273.63 262.036 272.56 258.626 271.19 243.007C269.698 225.992 267.568 220.39 259.551 212.382C251.499 204.341 245.19 201.695 231.544 200.64C213.059 199.211 210.939 198.547 202.524 191.554C199.922 189.392 196.15 186.937 194.14 186.097C189.106 183.993 178.296 183.488 172.102 185.066ZM336.254 249.108C329.677 251.188 326.442 253.266 321.416 258.64C315.194 265.291 312.804 270.667 312.776 278.073C312.748 285.442 315.462 290.614 320.983 293.718C326.418 296.772 336.569 296.183 342.929 292.444C359.445 282.733 365.829 262.769 355.523 253.058C350.052 247.902 343.993 246.66 336.254 249.108Z" fill="#F0494F"/>
</svg>
